<svg width="155" height="155" viewBox="0 0 155 155" fill="none" xmlns="http://www.w3.org/2000/svg">
<path d="M77.5 0C34.6875 0 0 34.6875 0 77.5C0 120.312 34.6875 155 77.5 155C120.312 155 155 120.312 155 77.5C155 34.6875 120.312 0 77.5 0ZM77.5 145C40.4063 145 10 114.969 10 77.5C10 40.4063 40.0312 10 77.5 10C114.594 10 145 40.0312 145 77.5C145 114.594 114.969 145 77.5 145ZM107.125 55.8437L85.4688 77.5L107.125 99.1562C108.594 100.625 108.594 103 107.125 104.469L104.469 107.125C103 108.594 100.625 108.594 99.1562 107.125L77.5 85.4688L55.8437 107.125C54.375 108.594 52 108.594 50.5312 107.125L47.875 104.469C46.4062 103 46.4062 100.625 47.875 99.1562L69.5312 77.5L47.875 55.8437C46.4062 54.375 46.4062 52 47.875 50.5312L50.5312 47.875C52 46.4062 54.375 46.4062 55.8437 47.875L77.5 69.5312L99.1562 47.875C100.625 46.4062 103 46.4062 104.469 47.875L107.125 50.5312C108.562 52 108.562 54.375 107.125 55.8437Z" fill="#FF728B"/>
</svg>
