<svg width="155" height="155" viewBox="0 0 155 155" fill="none" xmlns="http://www.w3.org/2000/svg">
<path d="M77.5 0C34.6978 0 0 34.6978 0 77.5C0 120.302 34.6978 155 77.5 155C120.302 155 155 120.302 155 77.5C155 34.6978 120.302 0 77.5 0ZM77.5 145C40.4175 145 10 114.983 10 77.5C10 40.4178 40.0172 10 77.5 10C114.583 10 145 40.0172 145 77.5C145 114.582 114.983 145 77.5 145ZM121.759 59.0747L65.3594 115.022C63.8891 116.481 61.5147 116.471 60.0562 115.001L33.2194 87.9472C31.7609 86.4769 31.7703 84.1025 33.2406 82.6441L35.9031 80.0031C37.3734 78.5447 39.7478 78.5541 41.2063 80.0244L62.7612 101.753L113.837 51.0878C115.307 49.6294 117.681 49.6387 119.14 51.1091L121.781 53.7716C123.239 55.2419 123.23 57.6163 121.759 59.0747V59.0747Z" fill="#B1DD68"/>
</svg>
