<svg width="175" height="48" viewBox="0 0 175 48" fill="none" xmlns="http://www.w3.org/2000/svg">
<g clip-path="url(#clip0)">
<path d="M162.946 2.42489C154.877 6.07064 153.364 5.029 160.928 24.2994C162.542 28.4659 166.307 24.2994 166.98 19.0912C168.325 12.3205 169.401 -0.491703 162.946 2.42489Z" fill="#FFD600"/>
<path d="M162 35C160.334 34.1667 157.6 31.9 160 29.5C162 29 166.3 29 167.5 33C168.7 37 164.334 36 162 35Z" fill="#B1DD68"/>
<path d="M152.537 44.3363C164.896 44.206 185.844 43.5544 168.248 41.2087C134.313 38.2766 44.9493 41.4042 24.3367 42.968C3.72415 44.5318 3.59846 46.2259 6.11218 46.8775C4.85532 47.7246 13.0249 48.9105 55.7584 46.8775C98.4918 44.8445 138.083 44.3363 152.537 44.3363Z" fill="#FF728B"/>
<path d="M30.328 18.464V31.664C28.6 32.912 26.752 33.848 24.784 34.472C22.832 35.08 20.688 35.384 18.352 35.384C15.584 35.384 13.088 34.96 10.864 34.112C8.64 33.248 6.736 32.048 5.152 30.512C3.584 28.96 2.376 27.104 1.528 24.944C0.68 22.784 0.256 20.408 0.256 17.816C0.256 15.192 0.664 12.8 1.48 10.64C2.312 8.48 3.488 6.632 5.008 5.096C6.528 3.544 8.376 2.344 10.552 1.496C12.728 0.647998 15.16 0.223997 17.848 0.223997C19.208 0.223997 20.472 0.327997 21.64 0.535997C22.808 0.727999 23.888 1.016 24.88 1.4C25.872 1.768 26.792 2.224 27.64 2.768C28.488 3.296 29.28 3.896 30.016 4.568L28.696 6.68C28.488 7 28.216 7.208 27.88 7.304C27.56 7.384 27.2 7.304 26.8 7.064C26.416 6.84 25.976 6.568 25.48 6.248C24.984 5.928 24.376 5.624 23.656 5.336C22.952 5.032 22.112 4.776 21.136 4.568C20.176 4.36 19.032 4.256 17.704 4.256C15.768 4.256 14.016 4.576 12.448 5.216C10.88 5.84 9.544 6.744 8.44 7.928C7.336 9.096 6.488 10.52 5.896 12.2C5.304 13.864 5.008 15.736 5.008 17.816C5.008 19.976 5.312 21.912 5.92 23.624C6.544 25.32 7.424 26.768 8.56 27.968C9.712 29.152 11.104 30.056 12.736 30.68C14.368 31.304 16.2 31.616 18.232 31.616C19.832 31.616 21.248 31.44 22.48 31.088C23.728 30.72 24.944 30.216 26.128 29.576V22.016H20.776C20.472 22.016 20.224 21.928 20.032 21.752C19.856 21.576 19.768 21.36 19.768 21.104V18.464H30.328ZM56.0166 10.688V35H53.4726C52.8646 35 52.4806 34.704 52.3206 34.112L51.9846 31.496C50.9286 32.664 49.7446 33.608 48.4326 34.328C47.1206 35.032 45.6166 35.384 43.9206 35.384C42.5926 35.384 41.4166 35.168 40.3926 34.736C39.3846 34.288 38.5366 33.664 37.8486 32.864C37.1606 32.064 36.6406 31.096 36.2886 29.96C35.9526 28.824 35.7846 27.568 35.7846 26.192V10.688H40.0566V26.192C40.0566 28.032 40.4726 29.456 41.3046 30.464C42.1526 31.472 43.4406 31.976 45.1686 31.976C46.4326 31.976 47.6086 31.68 48.6966 31.088C49.8006 30.48 50.8166 29.648 51.7446 28.592V10.688H56.0166ZM62.7903 35V10.688H65.3583C65.9663 10.688 66.3423 10.984 66.4863 11.576L66.7983 14.072C67.6943 12.968 68.7023 12.064 69.8223 11.36C70.9423 10.656 72.2383 10.304 73.7103 10.304C75.3423 10.304 76.6623 10.76 77.6703 11.672C78.6943 12.584 79.4303 13.816 79.8783 15.368C80.2303 14.488 80.6783 13.728 81.2223 13.088C81.7823 12.448 82.4063 11.92 83.0943 11.504C83.7823 11.088 84.5103 10.784 85.2783 10.592C86.0623 10.4 86.8543 10.304 87.6543 10.304C88.9343 10.304 90.0703 10.512 91.0623 10.928C92.0703 11.328 92.9183 11.92 93.6063 12.704C94.3103 13.488 94.8463 14.456 95.2143 15.608C95.5823 16.744 95.7663 18.048 95.7663 19.52V35H91.4703V19.52C91.4703 17.616 91.0543 16.176 90.2223 15.2C89.3903 14.208 88.1903 13.712 86.6223 13.712C85.9183 13.712 85.2463 13.84 84.6063 14.096C83.9823 14.336 83.4303 14.696 82.9503 15.176C82.4703 15.656 82.0863 16.264 81.7983 17C81.5263 17.72 81.3903 18.56 81.3903 19.52V35H77.0943V19.52C77.0943 17.568 76.7023 16.112 75.9183 15.152C75.1343 14.192 73.9903 13.712 72.4863 13.712C71.4303 13.712 70.4543 14 69.5583 14.576C68.6623 15.136 67.8383 15.904 67.0863 16.88V35H62.7903ZM106.555 29.144C107.339 30.2 108.195 30.944 109.123 31.376C110.051 31.808 111.091 32.024 112.243 32.024C114.515 32.024 116.259 31.216 117.475 29.6C118.691 27.984 119.299 25.68 119.299 22.688C119.299 21.104 119.155 19.744 118.867 18.608C118.595 17.472 118.195 16.544 117.667 15.824C117.139 15.088 116.491 14.552 115.723 14.216C114.955 13.88 114.083 13.712 113.107 13.712C111.715 13.712 110.491 14.032 109.435 14.672C108.395 15.312 107.435 16.216 106.555 17.384V29.144ZM106.339 14.456C107.363 13.192 108.547 12.176 109.891 11.408C111.235 10.64 112.771 10.256 114.499 10.256C115.907 10.256 117.179 10.528 118.315 11.072C119.451 11.6 120.419 12.392 121.219 13.448C122.019 14.488 122.635 15.784 123.067 17.336C123.499 18.888 123.715 20.672 123.715 22.688C123.715 24.48 123.475 26.152 122.995 27.704C122.515 29.24 121.819 30.576 120.907 31.712C120.011 32.832 118.907 33.72 117.595 34.376C116.299 35.016 114.835 35.336 113.203 35.336C111.715 35.336 110.435 35.088 109.363 34.592C108.307 34.08 107.371 33.376 106.555 32.48V43.232H102.259V10.688H104.827C105.435 10.688 105.811 10.984 105.955 11.576L106.339 14.456ZM149.157 10.688V35H146.613C146.005 35 145.621 34.704 145.461 34.112L145.125 31.496C144.069 32.664 142.885 33.608 141.573 34.328C140.261 35.032 138.757 35.384 137.061 35.384C135.733 35.384 134.557 35.168 133.533 34.736C132.525 34.288 131.677 33.664 130.989 32.864C130.301 32.064 129.781 31.096 129.429 29.96C129.093 28.824 128.925 27.568 128.925 26.192V10.688H133.197V26.192C133.197 28.032 133.613 29.456 134.445 30.464C135.293 31.472 136.581 31.976 138.309 31.976C139.573 31.976 140.749 31.68 141.837 31.088C142.941 30.48 143.957 29.648 144.885 28.592V10.688H149.157Z" fill="#545454"/>
</g>
<defs>
<clipPath id="clip0">
<rect width="175" height="48" fill="white"/>
</clipPath>
</defs>
</svg>
