<?xml version="1.0" encoding="UTF-8" standalone="no"?>
<svg
   xmlns:dc="http://purl.org/dc/elements/1.1/"
   xmlns:cc="http://creativecommons.org/ns#"
   xmlns:rdf="http://www.w3.org/1999/02/22-rdf-syntax-ns#"
   xmlns:svg="http://www.w3.org/2000/svg"
   xmlns="http://www.w3.org/2000/svg"
   xmlns:sodipodi="http://sodipodi.sourceforge.net/DTD/sodipodi-0.dtd"
   xmlns:inkscape="http://www.inkscape.org/namespaces/inkscape"
   width="8"
   height="8"
   viewBox="0 0 8 8"
   version="1.1"
   id="svg4"
   sodipodi:docname="circle-check.svg"
   inkscape:version="0.92.1 r15371">
  <metadata
     id="metadata10">
    <rdf:RDF>
      <cc:Work
         rdf:about="">
        <dc:format>image/svg+xml</dc:format>
        <dc:type
           rdf:resource="http://purl.org/dc/dcmitype/StillImage" />
      </cc:Work>
    </rdf:RDF>
  </metadata>
  <defs
     id="defs8" />
  <sodipodi:namedview
     pagecolor="#ffffff"
     bordercolor="#666666"
     borderopacity="1"
     objecttolerance="10"
     gridtolerance="10"
     guidetolerance="10"
     inkscape:pageopacity="0"
     inkscape:pageshadow="2"
     inkscape:window-width="1920"
     inkscape:window-height="968"
     id="namedview6"
     showgrid="false"
     inkscape:zoom="256"
     inkscape:cx="4.2181697"
     inkscape:cy="6.9881147"
     inkscape:window-x="0"
     inkscape:window-y="34"
     inkscape:window-maximized="1"
     inkscape:current-layer="svg4" />
  <path
     style="opacity:0;fill:#3dc2b5;fill-opacity:1;stroke:#41c2b5;stroke-width:0.03389831;stroke-opacity:1"
     d="M 3.5288136,7.9585468 C 2.0056703,7.762301 0.70990912,6.7040119 0.22664327,5.2615597 -0.16246008,4.1001641 0.00512469,2.8216297 0.6792598,1.8084672 1.2773941,0.90952671 2.1663723,0.31584856 3.2491479,0.09224235 3.7344108,-0.00797033 4.4921861,0.01319528 4.9794563,0.14057204 5.6679925,0.32056149 6.2824793,0.66773841 6.7812814,1.1585794 8.3346488,2.6871542 8.3859783,5.1373332 6.8977275,6.717061 6.3102034,7.340698 5.5659546,7.7543495 4.7528847,7.909159 4.405461,7.9753092 3.8369437,7.9982471 3.5288136,7.9585468 Z M 5.1389559,4.1118915 6.7488305,2.5017494 6.3759302,2.1288491 6.0030298,1.7559487 4.7492634,3.0100585 3.4954973,4.2641685 2.9952974,3.7648024 2.4950975,3.2654364 2.1390742,3.6202481 C 1.9432614,3.8153946 1.7830508,3.9904746 1.7830508,4.0093146 c 0,0.044796 1.6669736,1.7127193 1.7117441,1.7127193 0.018857,0 0.7587298,-0.7245641 1.644161,-1.6101424 z"
     id="path4487"
     inkscape:connector-curvature="0" />
  <path
     style="opacity:0;fill:#3dc2b5;fill-opacity:1;stroke:#41c2b5;stroke-width:0.03389831;stroke-opacity:1"
     d="M 3.5288136,7.9585468 C 2.0056703,7.762301 0.70990912,6.7040119 0.22664327,5.2615597 -0.16246008,4.1001641 0.00512469,2.8216297 0.6792598,1.8084672 1.2773941,0.90952671 2.1663723,0.31584856 3.2491479,0.09224235 3.7344108,-0.00797033 4.4921861,0.01319528 4.9794563,0.14057204 5.6679925,0.32056149 6.2824793,0.66773841 6.7812814,1.1585794 8.3346488,2.6871542 8.3859783,5.1373332 6.8977275,6.717061 6.3102034,7.340698 5.5659546,7.7543495 4.7528847,7.909159 4.405461,7.9753092 3.8369437,7.9982471 3.5288136,7.9585468 Z M 5.1389559,4.1118915 6.7488305,2.5017494 6.3759302,2.1288491 6.0030298,1.7559487 4.7492634,3.0100585 3.4954973,4.2641685 2.9952974,3.7648024 2.4950975,3.2654364 2.1390742,3.6202481 C 1.9432614,3.8153946 1.7830508,3.9904746 1.7830508,4.0093146 c 0,0.044796 1.6669736,1.7127193 1.7117441,1.7127193 0.018857,0 0.7587298,-0.7245641 1.644161,-1.6101424 z"
     id="path4489"
     inkscape:connector-curvature="0" />
  <path
     style="opacity:1;fill:#3dc2b5;fill-opacity:1;stroke:none;stroke-width:0.03401575;stroke-opacity:1;stroke-miterlimit:4;stroke-dasharray:none"
     d="M 3.5288136,7.9585468 C 2.0056703,7.762301 0.70990912,6.7040119 0.22664327,5.2615597 -0.16246008,4.1001641 0.00512469,2.8216297 0.6792598,1.8084672 1.2773941,0.90952671 2.1663723,0.31584856 3.2491479,0.09224235 3.7344108,-0.00797033 4.4921861,0.01319528 4.9794563,0.14057204 5.6679925,0.32056149 6.2824793,0.66773841 6.7812814,1.1585794 8.3346488,2.6871542 8.3859783,5.1373332 6.8977275,6.717061 6.3102034,7.340698 5.5659546,7.7543495 4.7528847,7.909159 4.405461,7.9753092 3.8369437,7.9982471 3.5288136,7.9585468 Z M 5.1389559,4.1118915 6.7488305,2.5017494 6.3759302,2.1288491 6.0030298,1.7559487 4.7492634,3.0100585 3.4954973,4.2641685 2.9952974,3.7648024 2.4950975,3.2654364 2.1390742,3.6202481 C 1.9432614,3.8153946 1.7830508,3.9904746 1.7830508,4.0093146 c 0,0.044796 1.6669736,1.7127193 1.7117441,1.7127193 0.018857,0 0.7587298,-0.7245641 1.644161,-1.6101424 z"
     id="path4491"
     inkscape:connector-curvature="0" />
</svg>
