<?xml version="1.0" encoding="UTF-8" standalone="no"?>
<svg
   xmlns:dc="http://purl.org/dc/elements/1.1/"
   xmlns:cc="http://creativecommons.org/ns#"
   xmlns:rdf="http://www.w3.org/1999/02/22-rdf-syntax-ns#"
   xmlns:svg="http://www.w3.org/2000/svg"
   xmlns="http://www.w3.org/2000/svg"
   xmlns:sodipodi="http://sodipodi.sourceforge.net/DTD/sodipodi-0.dtd"
   xmlns:inkscape="http://www.inkscape.org/namespaces/inkscape"
   width="8"
   height="8"
   viewBox="0 0 8 8"
   version="1.1"
   id="svg3741"
   sodipodi:docname="trash.svg"
   inkscape:version="0.92.1 r15371">
  <metadata
     id="metadata3747">
    <rdf:RDF>
      <cc:Work
         rdf:about="">
        <dc:format>image/svg+xml</dc:format>
        <dc:type
           rdf:resource="http://purl.org/dc/dcmitype/StillImage" />
      </cc:Work>
    </rdf:RDF>
  </metadata>
  <defs
     id="defs3745" />
  <sodipodi:namedview
     pagecolor="#ffffff"
     bordercolor="#666666"
     borderopacity="1"
     objecttolerance="10"
     gridtolerance="10"
     guidetolerance="10"
     inkscape:pageopacity="0"
     inkscape:pageshadow="2"
     inkscape:window-width="1920"
     inkscape:window-height="968"
     id="namedview3743"
     showgrid="false"
     inkscape:zoom="29.5"
     inkscape:cx="4"
     inkscape:cy="4"
     inkscape:window-x="0"
     inkscape:window-y="34"
     inkscape:window-maximized="1"
     inkscape:current-layer="svg3741" />
  <path
     d="M3 0c-.55 0-1 .45-1 1h-1c-.55 0-1 .45-1 1h7c0-.55-.45-1-1-1h-1c0-.55-.45-1-1-1h-1zm-2 3v4.81c0 .11.08.19.19.19h4.63c.11 0 .19-.08.19-.19v-4.81h-1v3.5c0 .28-.22.5-.5.5s-.5-.22-.5-.5v-3.5h-1v3.5c0 .28-.22.5-.5.5s-.5-.22-.5-.5v-3.5h-1z"
     id="path3739" />
  <path
     style="fill:#ff0000;stroke-width:0.03389831"
     d="M 1.0779661,7.9254237 C 1.0114338,7.8588915 1.0101695,7.8124295 1.0101695,5.4338983 V 3.0101695 h 0.4915254 0.4915254 v 1.7999617 c 0,1.5905013 0.0064,1.8134559 0.055027,1.9159217 0.1686938,0.3554959 0.6874597,0.3779237 0.894309,0.038664 0.065004,-0.1066156 0.067365,-0.1741983 0.067487,-1.9325132 L 3.01017,3.0101698 h 0.4915254 0.4915254 v 1.7999617 c 0,1.5905013 0.0064,1.8134559 0.055027,1.9159217 0.1686938,0.3554959 0.6874598,0.3779237 0.8943089,0.038664 0.065004,-0.1066156 0.067364,-0.1741983 0.067487,-1.9325132 L 5.0101695,3.0101695 H 5.5016949 5.9932203 V 5.4489253 7.887681 l -0.075339,0.05277 c -0.066428,0.046528 -0.3531159,0.05277 -2.4237287,0.05277 -2.3031918,0 -2.3496944,-0.0013 -2.4161865,-0.067797 z"
     id="path3749"
     inkscape:connector-curvature="0" />
  <path
     style="fill:#ff0000;stroke-width:0.03389831"
     d="M 0.02744979,1.8830508 C 0.02824274,1.6192482 0.29733004,1.2530893 0.60000488,1.1039499 0.74211098,1.0339289 0.81227047,1.0261334 1.3915254,1.0160029 L 2.0271186,1.0048872 V 0.911872 c 0,-0.19176898 0.1106904,-0.42359403 0.2859249,-0.59882852 0.2598767,-0.25987677 0.367584,-0.28592484 1.1822826,-0.28592484 0.7561403,0 0.8545702,0.0179961 1.0958508,0.20035627 0.1878407,0.14197034 0.3850943,0.4820016 0.3850943,0.66383699 v 0.112507 l 0.6355932,0.012952 c 0.7197414,0.014666 0.7857905,0.031695 1.0431831,0.2689512 0.1841789,0.1697703 0.2803698,0.3422052 0.3095159,0.5548477 l 0.020923,0.1526508 H 3.5063024 0.02711864 Z"
     id="path3751"
     inkscape:connector-curvature="0" />
</svg>
