<svg width="80" height="61" viewBox="0 0 80 61" fill="none" xmlns="http://www.w3.org/2000/svg">
<path d="M72.5 0H7.5C3.35781 0 0 3.37163 0 7.53086V52.716C0 56.8753 3.35781 60.2469 7.5 60.2469H72.5C76.6422 60.2469 80 56.8753 80 52.716V7.53086C80 3.37163 76.6422 0 72.5 0ZM75 52.716C75 54.1002 73.8784 55.2263 72.5 55.2263H7.5C6.12156 55.2263 5 54.1002 5 52.716V7.53086C5 6.14675 6.12156 5.02058 7.5 5.02058H72.5C73.8784 5.02058 75 6.14675 75 7.53086V52.716ZM17.5 26.358C22.3325 26.358 26.25 22.4244 26.25 17.572C26.25 12.7196 22.3325 8.78601 17.5 8.78601C12.6675 8.78601 8.75 12.7196 8.75 17.572C8.75 22.4244 12.6675 26.358 17.5 26.358ZM17.5 13.8066C19.5678 13.8066 21.25 15.4957 21.25 17.572C21.25 19.6483 19.5678 21.3374 17.5 21.3374C15.4322 21.3374 13.75 19.6483 13.75 17.572C13.75 15.4957 15.4322 13.8066 17.5 13.8066ZM49.8483 17.4197L35 32.3292L30.1517 27.461C28.6872 25.9904 26.3128 25.9904 24.8484 27.461L11.0984 41.2676C10.7502 41.6172 10.474 42.0323 10.2855 42.4891C10.097 42.9459 10 43.4356 10 43.93V48.323C10 49.3628 10.8395 50.2058 11.875 50.2058H68.125C69.1605 50.2058 70 49.3628 70 48.323V33.8889C70 32.8903 69.6048 31.9324 68.9017 31.2263L55.1517 17.4197C53.6872 15.9493 51.3128 15.9493 49.8483 17.4197ZM65 45.1852H15V44.45L27.5 31.8985L35 39.4294L52.5 21.8574L65 34.4088V45.1852Z" fill="#8F8F8F"/>
</svg>
