<svg width="14" height="16" viewBox="0 0 14 16" fill="none" xmlns="http://www.w3.org/2000/svg">
<path d="M9.8 10C8.90281 10 8.46875 10.5 7 10.5C5.52844 10.5 5.09937 10 4.2 10C1.88031 10 0 11.8803 0 14.2V14.5C0 15.3284 0.671562 16 1.5 16H12.5C13.3284 16 14 15.3284 14 14.5V14.2C14 11.8803 12.1197 10 9.8 10ZM13 14.5C13 14.7756 12.7756 15 12.5 15H1.5C1.22438 15 1 14.7756 1 14.5V14.2C1 12.4356 2.43562 11 4.2 11C4.80562 11 5.42906 11.5 7 11.5C8.54375 11.5 9.20813 11 9.8 11C11.5644 11 13 12.4356 13 14.2V14.5ZM7 9C9.20937 9 11 7.20906 11 5V0L9 1L7 0L5 1L3 0V5C3 7.20906 4.79094 9 7 9ZM4 1.61812L5 2.11812L7 1.11812L9 2.11812L10 1.61812V3.5H4V1.61812ZM4 4.5H10V5C10 6.65406 8.65437 8 7 8C5.34563 8 4 6.65406 4 5V4.5Z" fill="#FFD600"/>
</svg>
