<svg width="20" height="20" viewBox="0 0 20 20" fill="none" xmlns="http://www.w3.org/2000/svg">
<path d="M18.1251 0.168016L0.624471 10.2613C-0.274001 10.7808 -0.184154 12.1049 0.772914 12.4995L6.24969 14.765V18.7492C6.24969 19.9288 7.72631 20.4405 8.46462 19.5421L10.8358 16.6594L15.7735 18.6984C16.5196 19.007 17.3634 18.5343 17.4845 17.7336L19.9846 1.44139C20.1448 0.398474 19.0236 -0.35149 18.1251 0.168016ZM7.49974 18.7492V15.2806L9.62873 16.1594L7.49974 18.7492ZM16.2501 17.5422L8.19508 14.2142L15.9883 5.00372C16.1759 4.78498 15.8751 4.48812 15.6563 4.67561L5.68326 13.1752L1.2495 11.3472L18.7502 1.25L16.2501 17.5422Z" fill="white"/>
</svg>
